<svg xmlns="http://www.w3.org/2000/svg" xmlns:xlink="http://www.w3.org/1999/xlink" version="1.1" width="256" height="256" viewBox="0 0 256 256" xml:space="preserve">

<defs>
</defs>
<g style="stroke: none; stroke-width: 0; stroke-dasharray: none; stroke-linecap: butt; stroke-linejoin: miter; stroke-miterlimit: 10; fill: none; fill-rule: nonzero; opacity: 1;" transform="translate(1.4065934065934016 1.4065934065934016) scale(2.81 2.81)" >
	<path d="M 19.075 63.358 c -2.073 0 -3.759 1.687 -3.759 3.759 c 0 2.073 1.687 3.76 3.759 3.76 s 3.759 -1.687 3.759 -3.76 C 22.834 65.045 21.148 63.358 19.075 63.358 z M 19.075 68.877 c -0.97 0 -1.759 -0.789 -1.759 -1.76 c 0 -0.97 0.789 -1.759 1.759 -1.759 c 0.97 0 1.759 0.789 1.759 1.759 C 20.834 68.088 20.045 68.877 19.075 68.877 z" style="stroke: none; stroke-width: 1; stroke-dasharray: none; stroke-linecap: butt; stroke-linejoin: miter; stroke-miterlimit: 10; fill: rgb(0,0,0); fill-rule: nonzero; opacity: 1;" transform=" matrix(1 0 0 1 0 0) " stroke-linecap="round" />
	<path d="M 73.681 63.358 c -2.072 0 -3.759 1.687 -3.759 3.759 c 0 2.073 1.687 3.76 3.759 3.76 s 3.759 -1.687 3.759 -3.76 C 77.439 65.045 75.753 63.358 73.681 63.358 z M 73.681 68.877 c -0.97 0 -1.759 -0.789 -1.759 -1.76 c 0 -0.97 0.789 -1.759 1.759 -1.759 s 1.759 0.789 1.759 1.759 C 75.439 68.088 74.65 68.877 73.681 68.877 z" style="stroke: none; stroke-width: 1; stroke-dasharray: none; stroke-linecap: butt; stroke-linejoin: miter; stroke-miterlimit: 10; fill: rgb(0,0,0); fill-rule: nonzero; opacity: 1;" transform=" matrix(1 0 0 1 0 0) " stroke-linecap="round" />
	<path d="M 89.938 50.154 l -5.752 -15.433 H 89 c 0.553 0 1 -0.448 1 -1 c 0 -10.179 -8.281 -18.461 -18.461 -18.461 H 6.401 C 2.872 15.261 0 18.132 0 21.662 v 40.591 c 0 3.233 2.631 5.864 5.864 5.864 h 5.662 c 0.492 3.731 3.686 6.622 7.549 6.622 s 7.056 -2.891 7.548 -6.622 h 39.51 c 0.492 3.731 3.685 6.622 7.548 6.622 c 3.863 0 7.056 -2.891 7.549 -6.622 h 2.906 c 3.233 0 5.864 -2.631 5.864 -5.864 V 50.504 c 0 -0.012 -0.006 -0.022 -0.007 -0.034 C 89.99 50.364 89.976 50.257 89.938 50.154 z M 88 57.996 h -3.45 c -0.631 0 -1.144 -0.514 -1.144 -1.145 s 0.513 -1.145 1.144 -1.145 H 88 V 57.996 z M 87.561 49.504 h -5.099 l 0.922 -4.21 c 0.118 -0.54 -0.224 -1.073 -0.763 -1.191 c -0.541 -0.117 -1.074 0.223 -1.19 0.763 l -1.015 4.638 H 69.148 V 34.722 H 82.05 L 87.561 49.504 z M 19.075 72.739 c -3.1 0 -5.622 -2.522 -5.622 -5.622 s 2.522 -5.621 5.622 -5.621 c 3.1 0 5.622 2.521 5.622 5.621 S 22.175 72.739 19.075 72.739 z M 73.681 72.739 c -3.1 0 -5.621 -2.522 -5.621 -5.622 s 2.521 -5.621 5.621 -5.621 s 5.622 2.521 5.622 5.621 S 76.78 72.739 73.681 72.739 z M 84.136 66.117 h -2.906 c -0.492 -3.73 -3.685 -6.621 -7.549 -6.621 c -3.862 0 -7.055 2.891 -7.548 6.621 h -39.51 c -0.492 -3.73 -3.685 -6.621 -7.548 -6.621 s -7.056 2.891 -7.549 6.621 H 5.864 C 3.733 66.117 2 64.384 2 62.253 v -2.257 h 3.397 c 0.552 0 1 -0.447 1 -1 s -0.448 -1 -1 -1 H 2 V 21.662 c 0 -2.427 1.974 -4.401 4.401 -4.401 h 65.138 c 8.741 0 15.912 6.848 16.431 15.461 H 68.148 c -0.553 0 -1 0.448 -1 1 v 16.782 c 0 0.553 0.447 1 1 1 H 88 v 2.203 h -3.45 c -1.733 0 -3.144 1.41 -3.144 3.145 s 1.41 3.145 3.144 3.145 H 88 v 2.257 C 88 64.384 86.267 66.117 84.136 66.117 z" style="stroke: none; stroke-width: 1; stroke-dasharray: none; stroke-linecap: butt; stroke-linejoin: miter; stroke-miterlimit: 10; fill: rgb(0,0,0); fill-rule: nonzero; opacity: 1;" transform=" matrix(1 0 0 1 0 0) " stroke-linecap="round" />
	<path d="M 55.573 32.722 H 40.748 c -1.558 0 -2.826 1.268 -2.826 2.826 v 13.131 c 0 1.558 1.268 2.825 2.826 2.825 h 14.826 c 1.559 0 2.826 -1.268 2.826 -2.825 V 35.547 C 58.399 33.989 57.132 32.722 55.573 32.722 z M 40.748 34.722 h 14.826 c 0.455 0 0.826 0.371 0.826 0.826 v 1.073 H 39.922 v -1.073 C 39.922 35.092 40.292 34.722 40.748 34.722 z M 55.573 49.504 H 40.748 c -0.455 0 -0.826 -0.37 -0.826 -0.825 V 38.621 h 7.238 v 1.246 c 0 0.552 0.447 1 1 1 s 1 -0.448 1 -1 v -1.246 h 7.239 v 10.058 C 56.399 49.134 56.028 49.504 55.573 49.504 z" style="stroke: none; stroke-width: 1; stroke-dasharray: none; stroke-linecap: butt; stroke-linejoin: miter; stroke-miterlimit: 10; fill: rgb(0,0,0); fill-rule: nonzero; opacity: 1;" transform=" matrix(1 0 0 1 0 0) " stroke-linecap="round" />
	<path d="M 27.983 32.722 H 13.157 c -1.558 0 -2.826 1.268 -2.826 2.826 v 13.131 c 0 1.558 1.268 2.825 2.826 2.825 h 14.826 c 1.559 0 2.826 -1.268 2.826 -2.825 V 35.547 C 30.81 33.989 29.542 32.722 27.983 32.722 z M 13.157 34.722 h 14.826 c 0.456 0 0.826 0.371 0.826 0.826 v 5.565 H 12.332 v -5.565 C 12.332 35.092 12.702 34.722 13.157 34.722 z M 27.983 49.504 H 13.157 c -0.455 0 -0.826 -0.37 -0.826 -0.825 v -5.566 h 7.239 v 1.459 c 0 0.552 0.448 1 1 1 s 1 -0.448 1 -1 v -1.459 h 7.239 v 5.566 C 28.81 49.134 28.439 49.504 27.983 49.504 z" style="stroke: none; stroke-width: 1; stroke-dasharray: none; stroke-linecap: butt; stroke-linejoin: miter; stroke-miterlimit: 10; fill: rgb(0,0,0); fill-rule: nonzero; opacity: 1;" transform=" matrix(1 0 0 1 0 0) " stroke-linecap="round" />
</g>
</svg>