<svg xmlns="http://www.w3.org/2000/svg" xmlns:xlink="http://www.w3.org/1999/xlink" version="1.1" width="256" height="256" viewBox="0 0 256 256" xml:space="preserve">

<defs>
</defs>
<g style="stroke: none; stroke-width: 0; stroke-dasharray: none; stroke-linecap: butt; stroke-linejoin: miter; stroke-miterlimit: 10; fill: none; fill-rule: nonzero; opacity: 1;" transform="translate(1.4065934065934016 1.4065934065934016) scale(2.81 2.81)" >
	<path d="M 81.016 89.838 c -1.442 0 -2.8 -0.562 -3.82 -1.583 l -31.34 -31.341 l -5.194 5.194 c -0.197 0.197 -0.454 0.316 -0.747 0.292 c -0.279 -0.011 -0.54 -0.138 -0.721 -0.351 C 17.653 36.77 5.758 16.861 2.828 1.184 C 2.747 0.753 2.957 0.32 3.344 0.116 c 0.388 -0.205 0.864 -0.133 1.173 0.178 l 80.32 80.32 c 2.106 2.106 2.106 5.535 0 7.642 C 83.817 89.275 82.46 89.838 81.016 89.838 z M 45.856 54.5 c 0.266 0 0.52 0.105 0.707 0.293 L 78.61 86.841 c 1.286 1.287 3.529 1.285 4.813 0 c 0.643 -0.643 0.997 -1.498 0.997 -2.406 c 0 -0.909 -0.354 -1.765 -0.997 -2.407 L 5.545 4.149 c 3.807 14.52 15.383 33.257 34.47 55.779 l 5.135 -5.135 C 45.337 54.606 45.591 54.5 45.856 54.5 z" style="stroke: none; stroke-width: 1; stroke-dasharray: none; stroke-linecap: butt; stroke-linejoin: miter; stroke-miterlimit: 10; fill: rgb(0,0,0); fill-rule: nonzero; opacity: 1;" transform=" matrix(1 0 0 1 0 0) " stroke-linecap="round" />
	<path d="M 6.472 90 c -1.366 0 -2.65 -0.532 -3.616 -1.498 c -0.966 -0.966 -1.498 -2.25 -1.498 -3.616 c 0 -1.365 0.532 -2.649 1.498 -3.615 l 25.416 -25.417 c 0.391 -0.391 1.023 -0.391 1.414 0 c 0.391 0.391 0.391 1.023 0 1.414 L 4.271 82.685 c -0.588 0.588 -0.912 1.37 -0.912 2.201 c 0 0.832 0.324 1.614 0.912 2.202 c 1.177 1.176 3.227 1.176 4.403 0 l 24.122 -24.122 c 0.391 -0.391 1.023 -0.391 1.414 0 c 0.391 0.391 0.391 1.023 0 1.414 L 10.088 88.502 C 9.122 89.468 7.838 90 6.472 90 z" style="stroke: none; stroke-width: 1; stroke-dasharray: none; stroke-linecap: butt; stroke-linejoin: miter; stroke-miterlimit: 10; fill: rgb(0,0,0); fill-rule: nonzero; opacity: 1;" transform=" matrix(1 0 0 1 0 0) " stroke-linecap="round" />
	<path d="M 88.348 20.779 c -0.391 -0.391 -1.023 -0.391 -1.414 0 L 70.464 37.25 l -5.427 -5.427 l 16.471 -16.471 c 0.391 -0.391 0.391 -1.023 0 -1.414 c -0.391 -0.391 -1.023 -0.391 -1.414 0 L 63.623 30.409 l -5.389 -5.389 l 16.47 -16.471 c 0.391 -0.391 0.391 -1.023 0 -1.414 s -1.023 -0.391 -1.414 0 l -16.47 16.471 l -5.427 -5.427 l 16.47 -16.471 c 0.391 -0.391 0.391 -1.023 0 -1.414 c -0.391 -0.391 -1.023 -0.391 -1.414 0 L 49.273 17.47 c 0 0 -0.001 0.001 -0.001 0.001 c -0.001 0.001 -0.001 0.001 -0.001 0.002 c -2.924 2.925 -4.535 6.813 -4.535 10.948 c 0 4.136 1.611 8.025 4.536 10.95 c 2.925 2.925 6.812 4.536 10.949 4.536 s 8.025 -1.611 10.95 -4.536 l 17.178 -17.178 C 88.739 21.802 88.739 21.169 88.348 20.779 z M 50.686 37.957 c -2.547 -2.547 -3.95 -5.934 -3.95 -9.536 c 0 -3.266 1.164 -6.348 3.278 -8.794 l 6.098 6.099 c 0 0 0 0.001 0.001 0.001 s 0.001 0 0.001 0.001 l 12.902 12.902 c -2.446 2.114 -5.528 3.277 -8.795 3.277 C 56.619 41.907 53.232 40.504 50.686 37.957 z" style="stroke: none; stroke-width: 1; stroke-dasharray: none; stroke-linecap: butt; stroke-linejoin: miter; stroke-miterlimit: 10; fill: rgb(0,0,0); fill-rule: nonzero; opacity: 1;" transform=" matrix(1 0 0 1 0 0) " stroke-linecap="round" />
</g>
</svg>